<?xml version="1.0" encoding="utf-8"?>
<!-- Generator: Adobe Illustrator 16.0.0, SVG Export Plug-In . SVG Version: 6.00 Build 0)  -->
<!DOCTYPE svg PUBLIC "-//W3C//DTD SVG 1.1//EN" "http://www.w3.org/Graphics/SVG/1.1/DTD/svg11.dtd">
<svg version="1.1" id="图层_1" xmlns="http://www.w3.org/2000/svg" xmlns:xlink="http://www.w3.org/1999/xlink" x="0px" y="0px"
	 width="83.75px" height="94px" viewBox="0 0 83.75 94" enable-background="new 0 0 83.75 94" xml:space="preserve">
<g>
	<path d="M30.75,85.496c0,4.677-3.827,8.504-8.504,8.504H8.504C3.827,94,0,90.173,0,85.496V8.504C0,3.827,3.827,0,8.504,0h13.742
		c4.677,0,8.504,3.827,8.504,8.504V85.496z"/>
</g>
<g>
	<path d="M83.75,85.496c0,4.677-3.827,8.504-8.504,8.504H61.504C56.827,94,53,90.173,53,85.496V8.504C53,3.827,56.827,0,61.504,0
		h13.742c4.677,0,8.504,3.827,8.504,8.504V85.496z"/>
</g>
</svg>
