<?xml version="1.0" encoding="utf-8"?>
<!-- Generator: Adobe Illustrator 16.0.0, SVG Export Plug-In . SVG Version: 6.00 Build 0)  -->
<!DOCTYPE svg PUBLIC "-//W3C//DTD SVG 1.1//EN" "http://www.w3.org/Graphics/SVG/1.1/DTD/svg11.dtd">
<svg version="1.1" id="图层_1" xmlns="http://www.w3.org/2000/svg" xmlns:xlink="http://www.w3.org/1999/xlink" x="0px" y="0px"
	 width="277.068px" height="61.101px" viewBox="0 0 277.068 61.101" enable-background="new 0 0 277.068 61.101"
	 xml:space="preserve">
<path fill="#FFFFFF" d="M0.875,37.303c0,12.725,10.315,23.039,23.039,23.039c10.437,0,19.247-6.939,22.08-16.456l-22.08-6.513
	l0.021-0.07h-0.021V14.264C11.19,14.264,0.875,24.579,0.875,37.303"/>
<path fill="#FFFFFF" d="M64.111,18.083L64.111,18.083c0-9.624-7.802-17.427-17.426-17.427H24.633v36.116h20.789
	C55.744,36.771,64.111,28.404,64.111,18.083"/>
<path fill="#FFFFFF" d="M86.397,35.731c1.327,1.785,2.46,3.344,3.399,4.671l-4.257,3.191c-1.26-1.808-1.923-2.768-1.991-2.884
	c-1.557,2.197-3.708,4.554-6.455,7.072l-3.364-4.359c2.952-2.587,5.16-5.012,6.626-7.278c-1.122-1.603-3.09-4.326-5.905-8.17
	l4.12-2.609c1.441,1.876,2.871,3.742,4.291,5.595c0.594-1.784,1.052-4.016,1.373-6.693h-9.097v-4.773h14.281v4.566
	C88.663,28.958,87.655,32.849,86.397,35.731 M100.678,38.479c1.625,1.671,3.742,3.239,6.351,4.703l-3.433,4.738
	c-2.471-1.786-4.554-3.547-6.248-5.288c-1.831,1.923-4.166,3.822-7.003,5.7l-3.433-4.396c2.884-1.692,5.252-3.488,7.106-5.39
	c-2.106-3.226-3.696-7.197-4.772-11.912l4.909-1.27c0.938,3.593,2.003,6.454,3.193,8.583c1.373-2.587,2.186-5.825,2.438-9.716
	h-9.785V19.46h15.38v4.807c-0.595,3.341-1.19,5.95-1.785,7.827C102.864,34.474,101.891,36.603,100.678,38.479"/>
<path fill="#FFFFFF" d="M140.123,26.704c-0.365,5.218-1.293,9.407-2.78,12.564c1.007,1.42,2.403,2.793,4.189,4.12l-2.06,4.704
	c-1.832-1.671-3.319-3.272-4.464-4.808c-1.053,1.466-2.494,3.159-4.325,5.082l-1.957-3.091c-0.801,0.527-1.602,1.053-2.403,1.58
	c-0.343,0.229-0.738,0.303-1.184,0.223c-0.447-0.079-0.716-0.303-0.807-0.67V39.51h-2.026v0.479
	c-0.069,1.901-0.355,3.435-0.858,4.602c-0.527,1.213-1.476,2.507-2.849,3.88l-2.472-2.919v2.644h-4.429V37.998
	c-0.847,0.893-1.591,1.614-2.231,2.163l-1.168-5.185c2.472-2.265,4.566-5.16,6.283-8.686l3.571,2.267
	c-0.596,1.214-1.271,2.402-2.026,3.569v12.395c0.824-0.848,1.384-1.774,1.682-2.782c0.275-0.937,0.412-2.345,0.412-4.223v-1.991
	h10.265v5.219l1.956-1.372l0.172,2.335c0.71-0.757,1.385-1.615,2.026-2.575c-0.802-1.946-1.385-4.235-1.751-6.867
	c-0.184,0.253-0.367,0.493-0.549,0.721l-0.722-1.579v2.746h-12.221V30.17h11.673l-0.653-1.408h-8.205
	c-1.831,0-2.746-0.914-2.746-2.746V20.9c-2.197,3.343-4.601,6.124-7.209,8.343l-1.786-4.772c2.151-1.716,4.051-4.027,5.699-6.935
	l3.673,2.439h2.644v4.805h0.996v-7.003h3.981v7.003h1.031v-4.805h3.021v6.625c1.144-2.014,2.116-5.047,2.918-9.097l4.497,0.479
	c-0.435,1.672-0.858,3.171-1.27,4.498h5.596v4.223H140.123z M136.21,26.704h-2.128c-0.047,0.137-0.103,0.263-0.172,0.378
	c0.228,2.632,0.595,4.944,1.098,6.934C135.559,32.185,135.958,29.748,136.21,26.704"/>
<path fill="#FFFFFF" d="M173.563,26.979c-0.527,4.967-1.694,9.017-3.502,12.152c1.326,1.421,3.157,2.792,5.492,4.12l-2.919,4.944
	c-2.356-1.695-4.222-3.331-5.595-4.911c-1.603,1.763-3.627,3.491-6.077,5.186l-3.467-4.017c2.884-1.763,5.115-3.537,6.694-5.322
	c-0.824-1.556-1.522-3.443-2.095-5.663c-0.456,0.731-0.812,1.28-1.063,1.646l-2.233-4.737h-2.951
	c-0.596,0.641-1.054,1.11-1.373,1.407h4.257v3.57l-3.158,2.472l4.566-0.343l0.137,4.085l-5.253,0.413v1.407
	c0.068,2.746-1.201,4.223-3.812,4.429c-1.327,0.113-2.975,0.171-4.942,0.171l-0.858-4.016c1.579,0.046,2.746,0.056,3.502,0.032
	c0.457-0.021,0.789-0.136,0.995-0.343c0.206-0.206,0.309-0.537,0.309-0.995v-0.31l-6.9,0.516l-0.274-4.085l1.579-0.103l-2.025-3.263
	c1.03-0.525,1.911-1.006,2.644-1.441v-2.197h3.296c0.549-0.388,1.133-0.858,1.751-1.407h-7.004v-3.983h5.047v-1.82h-3.948v-3.948
	h3.948v-3.123h4.806v3.123h3.434v2.232c0.777-1.305,1.305-2.209,1.58-2.712l3.706,1.888c-1.053,1.716-2.001,3.171-2.849,4.36h0.754
	v1.957c1.625-3.112,2.793-6.728,3.502-10.848l5.048,0.343c-0.412,1.74-0.768,3.136-1.065,4.188h8.104v4.944H173.563z
	 M150.217,38.239v-0.687l2.746-1.991h-2.883c-1.305,1.007-2.793,2.014-4.463,3.021L150.217,38.239z M155.436,24.574h-2.301v1.82
	h0.961C154.394,26.006,154.84,25.398,155.436,24.574 M169.03,26.979h-3.536c-0.068,0.183-0.138,0.366-0.206,0.549
	c0.344,2.747,0.961,5.127,1.854,7.141C168.08,32.586,168.709,30.022,169.03,26.979"/>
<path fill="#FFFFFF" d="M205.9,30.617h0.688v12.36c0,1.693-0.355,2.906-1.064,3.639c-0.755,0.777-2.083,1.212-3.982,1.306
	c-1.396,0.067-3.627,0.101-6.694,0.101l-1.1-4.085c1.993,0.069,3.799,0.104,5.425,0.104c0.642,0,1.104-0.088,1.391-0.259
	c0.286-0.172,0.453-0.485,0.498-0.943h-15.036v5.218h-5.493v-17.44h24.546c-0.961-0.686-1.625-1.155-1.991-1.408
	c-6.958,0.138-13.881,0.39-20.77,0.756c-2.015,0.092-3.021-0.881-3.021-2.918v-0.515c1.625-0.777,3.193-1.647,4.703-2.609h-6.42
	V19.94h12.978v-2.472l6.248,0.892v1.58h12.6v3.982h-6.66c1.944,1.145,4.085,2.461,6.42,3.948L205.9,30.617z M201.096,33.947h-15.071
	v1.373h15.071V33.947z M201.096,38.41h-15.071v1.339h15.071V38.41z M198.245,25.879c-0.938-0.641-1.888-1.293-2.85-1.957h-4.496
	c-1.511,0.938-2.771,1.671-3.777,2.197C189.777,26.005,193.484,25.926,198.245,25.879"/>
<path fill="#FFFFFF" d="M233.812,41.568c2.312,1.213,5.858,2.162,10.643,2.85l-2.403,3.708c-5.127-1.054-9.006-2.541-11.638-4.464
	v4.566h-5.218v-4.6c-2.587,1.83-6.433,3.375-11.536,4.635l-2.438-3.777c4.646-0.732,8.159-1.705,10.54-2.918h-9.509v-3.811h12.942
	v-1.201h5.218v1.201h12.977v3.811H233.812z M233.538,20.352h8.719v3.193h-9.613v1.236h8.515v2.815h-8.515v1.237h8.515v2.815h-8.515
	v1.271h9.854v3.192h-22.178v0.893h-5.148V28.97c-0.847,0.824-1.774,1.647-2.782,2.471l-1.029-5.458
	c2.793-2.38,4.898-5.275,6.316-8.686l5.665,0.378c-0.755,1.488-1.224,2.381-1.407,2.677h5.631l-1.442-2.745l5.904-0.241
	L233.538,20.352z M227.427,23.544h-7.106v1.237h7.106V23.544z M227.427,27.596h-7.106v1.237h7.106V27.596z M227.427,31.647h-7.106
	v1.271h7.106V31.647z"/>
<path fill="#FFFFFF" d="M247.269,18.499h29.8v28.699h-27.053c-1.831,0-2.747-0.916-2.747-2.745V18.499z M268.897,30.377v6.729
	c0,1.603-0.299,2.747-0.893,3.433c-0.618,0.734-1.74,1.146-3.365,1.236c-1.053,0.068-2.471,0.104-4.256,0.104l-1.03-4.12
	c0.915,0.023,1.831,0.033,2.746,0.033c0.641,0,1.087-0.102,1.34-0.308c0.251-0.206,0.378-0.597,0.378-1.167v-3.673
	c-1.74,2.883-4.452,5.413-8.138,7.587l-2.953-3.571v6.146h18.813v-19.81h-18.813v13.354c3.435-1.738,5.929-3.731,7.484-5.974h-6.521
	v-4.361h10.128v-2.369h5.08v2.369h1.99v4.361H268.897z"/>
</svg>
